# xmcd CD database file
#
# Track frame offsets:
#	150
#	24580
#	35188
#	48383
#	62475
#	80885
#	91150
#	103225
#	119350
#	137180
#	152628
#	163375
#	174778
#	188225
#	197793
#	209388
#	223318
#	234015
#	245770
#	259045
#	271343
#	281868
#	291148
#	302498
#	313475
#
# Disc length: 4370 seconds
#
# Revision: 0
# Processed by: cddbd v1.5.2PL0 Copyright (c) Steve Scherf et al.
# Submitted via: CDex 1.70beta2
#
DISCID=81111019
DTITLE=Various Artist - This Is Bossa Nova DISC1
DYEAR=2013
DGENRE=Jazz
TTITLE0=The Girl From Ipanema (Stereo Version)
TTITLE1=Agua De Beber
TTITLE2=Wave
TTITLE3=Summer Samba (Samba De Verao) (Single Version)
TTITLE4=Tide
TTITLE5=So Danco Samba (Jazz 'N' Samba) (1996 Digital Remaster)
TTITLE6=Mais Que Nada
TTITLE7=Águas De Março
TTITLE8=And I Love Her
TTITLE9=Berimbau
TTITLE10=Samba Do Avião
TTITLE11=The Shadow Of Your Smile
TTITLE12=Winter Moon
TTITLE13=Sambou...Sambou
TTITLE14=We And The Sea (Nos e ou Mar)
TTITLE15=Tristeza (Brazilian Blues)
TTITLE16=Tim Dom Dom
TTITLE17=A Rã
TTITLE18=Maria Ninguém
TTITLE19=Dindi
TTITLE20=Nôa... Nôa...
TTITLE21=Batucada (Batacada Surgin)
TTITLE22=Noite Dos Mascarados
TTITLE23=Coração Vagabundo
TTITLE24=Vera Cruz
EXTD=YEAR: 2013
EXTT0=
EXTT1=
EXTT2=
EXTT3=
EXTT4=
EXTT5=
EXTT6=
EXTT7=
EXTT8=
EXTT9=
EXTT10=
EXTT11=
EXTT12=
EXTT13=
EXTT14=
EXTT15=
EXTT16=
EXTT17=
EXTT18=
EXTT19=
EXTT20=
EXTT21=
EXTT22=
EXTT23=
EXTT24=
PLAYORDER=
